<?xml version="1.0" encoding="utf-8"?>
<!-- Generator: Adobe Illustrator 25.2.0, SVG Export Plug-In . SVG Version: 6.00 Build 0)  -->
<svg version="1.1" id="Layer_1" xmlns="http://www.w3.org/2000/svg" xmlns:xlink="http://www.w3.org/1999/xlink" x="0px" y="0px"
	 viewBox="0 0 837.9 197.1" style="enable-background:new 0 0 837.9 197.1;" xml:space="preserve">
<style type="text/css">
	.st0{fill:url(#SVGID_1_);}
	.st1{fill:url(#SVGID_2_);}
	.st2{fill:url(#SVGID_3_);}
	.st3{fill:url(#SVGID_4_);}
	.st4{fill:url(#SVGID_5_);}
	.st5{fill:url(#SVGID_6_);}
	.st6{fill:url(#SVGID_7_);}
	.st7{fill:url(#SVGID_8_);}
	.st8{fill:url(#SVGID_9_);}
	.st9{fill:url(#SVGID_10_);}
	.st10{fill:url(#SVGID_11_);}
	.st11{fill:url(#SVGID_12_);}
	.st12{fill:url(#SVGID_13_);}
	.st13{fill:url(#SVGID_14_);}
	.st14{fill:url(#SVGID_15_);}
	.st15{fill:url(#SVGID_16_);}
	.st16{fill:url(#SVGID_17_);}
	.st17{fill:#003752;}
	.st18{fill:#0084C4;}
	.st19{fill:#FFFFFF;}
	.st20{fill:url(#SVGID_18_);}
	.st21{fill:url(#SVGID_19_);}
	.st22{fill:url(#SVGID_20_);}
</style>
<g>
	<linearGradient id="SVGID_1_" gradientUnits="userSpaceOnUse" x1="132.9679" y1="188.1983" x2="115.6677" y2="161.4892">
		<stop  offset="0" style="stop-color:#003752"/>
		<stop  offset="0.9944" style="stop-color:#003752"/>
	</linearGradient>
	<path class="st0" d="M120.1,177.4c1.5,4.8,3.5,9.4,6,13.9c0.2,0.3,0.3,0.7,0.5,1c-0.1,0.1-0.2,0.1-0.3,0.2
		c-3.2-3.2-6.5-6.2-9.6-9.5c-4.4-4.5-8.6-9.2-12.7-14c4.9,0.6,9.8,0.7,14.8,0.6c6-0.1,11.5-1.2,16.5-3.3c-4.3,3.3-9,6.2-14.1,8.6
		C119.6,175.7,119.6,175.7,120.1,177.4z"/>
	<linearGradient id="SVGID_2_" gradientUnits="userSpaceOnUse" x1="134.2977" y1="154.2179" x2="127.9146" y2="144.3632">
		<stop  offset="0" style="stop-color:#003752"/>
		<stop  offset="0.9944" style="stop-color:#003752"/>
	</linearGradient>
	<path class="st1" d="M161.5,133c-0.7,1.5-1.4,3-2.1,4.4c-3,2-6,4-8.9,6c-8.2,5.6-16.4,11.3-25.5,15.5c-7.8,3.6-15.7,6.1-24,6.4
		c-0.6-0.8-1.3-1.6-1.9-2.4c3.6,0,7.3-0.5,11-1.3c9.2-2.1,17.5-6.1,25.4-11.1c8.2-5.3,16.3-10.9,24.4-16.4
		C160.4,133.8,160.9,133.4,161.5,133z"/>
	<linearGradient id="SVGID_3_" gradientUnits="userSpaceOnUse" x1="101.0151" y1="54.6361" x2="99.2371" y2="51.8912">
		<stop  offset="0" style="stop-color:#003752"/>
		<stop  offset="0.9944" style="stop-color:#003752"/>
	</linearGradient>
	<path class="st2" d="M98.9,55v-3c1.3,0.5,2.4,0.8,3.6,1.3c0,0.1,0,0.2,0,0.3C101.3,54.1,100.2,54.6,98.9,55z"/>
	<linearGradient id="SVGID_4_" gradientUnits="userSpaceOnUse" x1="102.1168" y1="58.039" x2="100.0817" y2="54.8971">
		<stop  offset="0" style="stop-color:#003752"/>
		<stop  offset="0.9944" style="stop-color:#003752"/>
	</linearGradient>
	<path class="st3" d="M99,55.6c1.4-0.5,2.6-1,4-1.6c-0.1,1.1-0.2,2-0.3,3c-0.8-0.3-1.3-0.5-1.8-0.6c0.5,0.4,1,0.7,1.8,1.3
		c-1.1,0.4-2.1,0.8-3.4,1.3c-0.2-0.9-0.3-1.7-0.5-2.6h1.7C100,56.2,99.6,56,99,55.6z"/>
	<linearGradient id="SVGID_5_" gradientUnits="userSpaceOnUse" x1="102.4204" y1="53.3325" x2="100.4498" y2="50.2902">
		<stop  offset="0" style="stop-color:#003752"/>
		<stop  offset="0.9944" style="stop-color:#003752"/>
	</linearGradient>
	<path class="st4" d="M102.8,53.1c-1.3-0.5-2.6-0.9-4.3-1.5c1.7-0.7,2.9-1.2,4.3-1.8V53.1z"/>
	<linearGradient id="SVGID_6_" gradientUnits="userSpaceOnUse" x1="106.547" y1="57.2083" x2="104.6672" y2="54.3061">
		<stop  offset="0" style="stop-color:#003752"/>
		<stop  offset="0.9944" style="stop-color:#003752"/>
	</linearGradient>
	<path class="st5" d="M106.1,54.5c0,1,0,2-0.1,3h-0.7c-0.2-1-0.3-2-0.4-2.9c0-0.3,0.4-0.6,0.6-0.8C105.7,54,106.1,54.3,106.1,54.5z"
		/>
	<linearGradient id="SVGID_7_" gradientUnits="userSpaceOnUse" x1="106.5643" y1="52.4998" x2="104.8827" y2="49.9037">
		<stop  offset="0" style="stop-color:#003752"/>
		<stop  offset="0.9944" style="stop-color:#003752"/>
	</linearGradient>
	<path class="st6" d="M106.2,49.2c0,1.3,0,2.3,0,3.3c0,0.2-0.3,0.5-0.6,0.7c-0.1,0.1-0.6-0.3-0.6-0.4c-0.1-0.9-0.1-1.9,0-2.8
		C105,49.7,105.6,49.5,106.2,49.2z"/>
	<linearGradient id="SVGID_8_" gradientUnits="userSpaceOnUse" x1="110.575" y1="47.9192" x2="106.0575" y2="40.9448">
		<stop  offset="0" style="stop-color:#003752"/>
		<stop  offset="0.9944" style="stop-color:#003752"/>
	</linearGradient>
	<path class="st7" d="M110,39.1c0,3.1,0,5.9,0,8.8c0,0.3-0.5,0.8-0.9,1c-0.7,0.3-1.4,0.5-2.4,0.9c0-3,0-5.8,0-8.6
		c0-0.4,0.4-0.9,0.7-1.1C108.1,39.7,109,39.5,110,39.1z"/>
	<linearGradient id="SVGID_9_" gradientUnits="userSpaceOnUse" x1="117.3087" y1="46.9647" x2="111.8387" y2="38.5198">
		<stop  offset="0" style="stop-color:#003752"/>
		<stop  offset="0.9944" style="stop-color:#003752"/>
	</linearGradient>
	<path class="st8" d="M119.1,38.2c0,1.2,0,2.3,0,3.4c0,0.2-0.2,0.5-0.4,0.6c-2.2,1-2.6,2.9-2.6,5c0,0.1,0,0.3,0,0.5
		c0,0,0,0.1-0.2,0.3c-1.6,0.1-3.3,0.3-5.2,0.4c0-3,0-5.9,0-8.8c0-0.3,0.5-0.8,0.9-0.8C114,38.5,116.4,38.4,119.1,38.2z"/>
	<linearGradient id="SVGID_10_" gradientUnits="userSpaceOnUse" x1="128.3818" y1="48.0335" x2="121.2931" y2="37.0894">
		<stop  offset="0" style="stop-color:#003752"/>
		<stop  offset="0.9944" style="stop-color:#003752"/>
	</linearGradient>
	<path class="st9" d="M119.7,38.1c2.8,0.2,5.5,0.5,8.3,0.7v9.4c-1.8-0.1-3.5-0.3-5.3-0.4c-0.1-2.5-0.3-4.9-3.1-5.9V38.1z"/>
	<linearGradient id="SVGID_11_" gradientUnits="userSpaceOnUse" x1="133.273" y1="48.9751" x2="127.4639" y2="40.0067">
		<stop  offset="0" style="stop-color:#003752"/>
		<stop  offset="0.9944" style="stop-color:#003752"/>
	</linearGradient>
	<path class="st10" d="M132,43.1v6.7c-1-0.4-1.9-0.7-2.7-1c-0.3-0.1-0.5-0.5-0.5-0.8c0-2.9,0-5.7,0-8.8C132,40.1,132,40.1,132,43.1z
		"/>
	<linearGradient id="SVGID_12_" gradientUnits="userSpaceOnUse" x1="133.8124" y1="56.8615" x2="132.1332" y2="54.2691">
		<stop  offset="0" style="stop-color:#003752"/>
		<stop  offset="0.9944" style="stop-color:#003752"/>
	</linearGradient>
	<path class="st11" d="M132.8,57.5v-3.7C134,54.1,134.1,55.1,132.8,57.5z"/>
	<linearGradient id="SVGID_13_" gradientUnits="userSpaceOnUse" x1="133.9587" y1="52.6569" x2="132.1489" y2="49.8629">
		<stop  offset="0" style="stop-color:#003752"/>
		<stop  offset="0.9944" style="stop-color:#003752"/>
	</linearGradient>
	<path class="st12" d="M132.6,52.6c0-1,0-2,0-3l0.4-0.2c0.2,0.2,0.7,0.5,0.7,0.8c0.1,0.8,0.1,1.6,0,2.4c0,0.2-0.3,0.4-0.5,0.6
		C132.9,53,132.6,52.8,132.6,52.6z"/>
	<linearGradient id="SVGID_14_" gradientUnits="userSpaceOnUse" x1="138.1702" y1="52.7154" x2="136.1231" y2="49.555">
		<stop  offset="0" style="stop-color:#003752"/>
		<stop  offset="0.9944" style="stop-color:#003752"/>
	</linearGradient>
	<path class="st13" d="M140,51.5c-1.6,0.6-2.8,1-4.2,1.6v-3.3C137.1,50.3,138.4,50.8,140,51.5z"/>
	<linearGradient id="SVGID_15_" gradientUnits="userSpaceOnUse" x1="139.3379" y1="55.1699" x2="137.5519" y2="52.4126">
		<stop  offset="0" style="stop-color:#003752"/>
		<stop  offset="0.9944" style="stop-color:#003752"/>
	</linearGradient>
	<path class="st14" d="M136.1,53.7c0-0.1,0-0.2,0-0.4c1.1-0.4,2.2-0.8,3.5-1.2V55C138.4,54.5,137.2,54.1,136.1,53.7z"/>
	<linearGradient id="SVGID_16_" gradientUnits="userSpaceOnUse" x1="139.0466" y1="58.8257" x2="135.8403" y2="53.8756">
		<stop  offset="0" style="stop-color:#003752"/>
		<stop  offset="0.9944" style="stop-color:#003752"/>
	</linearGradient>
	<path class="st15" d="M135.8,57.7c0.8-0.5,1.3-0.8,1.9-1c-0.5,0.1-1,0.2-1.7,0.3c-0.1-0.9-0.2-1.7-0.3-2.9c1.5,0.6,2.6,1,3.9,1.5
		c-0.5,0.4-0.8,0.7-1.1,1c0.4-0.1,0.8-0.2,1.3-0.3c0,0.6,0.1,1,0.1,1.4c-0.1,0.9-0.4,1.3-1.4,0.9C137.6,58.3,136.8,58.1,135.8,57.7z
		"/>
	<linearGradient id="SVGID_17_" gradientUnits="userSpaceOnUse" x1="143.9417" y1="136.1656" x2="65.1697" y2="14.5526">
		<stop  offset="0" style="stop-color:#003752"/>
		<stop  offset="0.9944" style="stop-color:#003752"/>
	</linearGradient>
	<path class="st16" d="M166.6,83.4c-4.2-19.9-14.2-36.4-30.2-48.9c-18.2-14.3-39-19.9-61.9-17.1c-8.4,1-16.4,3.4-24.1,6.8
		c-1.5,0.7-2,1.5-2.1,3.1c-0.2,8.1,0.2,16.2,1.1,24.3c1,9,2.7,17.9,5.1,26.6c5.5,20.5,14.3,39.6,25.4,57.6c1.4,2.3,2.8,4.5,4.3,6.8
		c1.7,0.4,3.5,0.8,5.2,1.2c3,0.7,6,1.2,9,1.7c7.2,1.1,14-0.8,20.8-2.9c7.4-2.3,14.3-5.7,20.8-9.7c7.9-4.8,16.2-8.4,25.2-10.5
		c1.5-5.4,2.4-10.9,2.8-16.7C168.6,98.2,168.2,90.8,166.6,83.4z M75.2,32.3c1-0.7,1.9-0.6,2.8,0.2c2.5,2,5.3,1.8,7.8-0.6
		c1.2,0.7,2.4,1.4,3.6,2.1c-1.6-0.1-3.2-0.3-4.8-0.2c-1.9,0.2-2.5,1.1-2.9,3.9c-2-3.7-4.8-5.1-8.8-3.8
		C73.6,33.5,74.4,32.9,75.2,32.3z M89.7,79.9c-3.5-5.2-7.8-6-13.1-2c0.2-0.6,0.2-0.7,0.3-0.8c0.6-0.7,1.9-2,1.8-2.1
		c-1-1.2-2.1-2.4-3.4-3.4c-0.7-0.5-1.8-0.4-2.7-0.5c1.3-1,5.3-1.1,6.4-0.2c0.2,0.1,0.5,0.4,0.5,0.6c0.5,3,3.1,2,4.8,2.6
		c0.4,0.1,0.9,0,1.4-0.1c1.3-0.3,2.2,0.2,2.7,1.4c0.5,1.4,1,2.8,1.6,4.1C89.9,79.6,89.8,79.7,89.7,79.9z M135.7,71.9
		c0,0.5,0.7,0.9,1.2,1.5c-1.4,1.2-1,2.8-0.8,4.4c1.7,16.9,3.4,33.8,5.1,50.6c0.1,1.3-0.2,2-1.4,2.7c-9.5,5.6-19.4,9.9-30.2,12.1
		c-4.8,1-9.5,0.9-14.3-0.1c-1.1-0.2-2.2-0.9-3.4-1.7c1-0.2,1.9-0.4,2.9-0.6c0.9-0.1,1.3-0.5,1.4-1.5c1.2-12.6,2.5-25.1,3.8-37.7
		c0.8-7.8,1.6-15.6,2.3-23.4c0.2-1.8,0.8-3.6-1-5.1c1.4-0.5,1.5-1.4,1.4-2.6c-0.1-1.1,0-2.3-0.1-3.4c-0.1-0.7-0.4-1.4-0.6-2.1
		c-0.6,0.2-1.2,0.4-1.9,0.7c-0.2-1.8-1.6-2.6-2.9-3.5c-0.3-0.2-0.4-1-0.4-1.5c0-3.3,0.1-6.7,0.2-10c0-0.3,0.3-0.8,0.5-0.8
		c0.3-0.1,0.8,0,1.1,0.2c1.3,0.8,3.4-0.2,3.8-1.6c0.1-0.3,0.7-0.8,1-0.8c0.5,0,1.1,0.4,1.6,0.7c0.2,0.1,0.3,0.4,0.5,0.6
		c0.2-0.2,0.4-0.5,0.4-0.7c0-3,0.1-6.1,0-9.1c0-0.4-0.7-0.8-1.2-1.4c0.4-0.2,0.8-0.5,1.3-0.8c3-1.6,6-3.3,9-4.9
		c2.9-1.5,3.3-3,2.3-5.6c0.8-0.7,1.5-1.4,2-1.9c0.4,0.5,1.1,1.2,1.8,2c-0.8,2.2-1,3.7,2.1,5.4c3.5,1.9,7,3.8,10.8,5.8
		c-2,0.6-1.6,1.9-1.6,3.2c0,2.3,0,4.5,0,6.8c0,0.4,0.2,0.9,0.3,1.5c0.6-0.7,0.9-1.4,1.3-1.4c0.6,0,1.2,0.4,1.8,0.6
		c-0.7,1.6,0.9,1.3,1.5,1.6c0.7,0.4,1.5,1.3,2.4,0.1c0.1-0.2,0.8-0.2,1.1-0.1c0.2,0.1,0.4,0.6,0.4,0.9c0,2.8-0.1,5.5,0,8.3
		c0.2,2.7,0.3,2.7-1.6,4.3c-0.7,0.6-1.3,1.4-2,2.2c-0.1,0-0.2-0.2-0.4-0.3c-0.9-0.7-1.5-0.3-1.6,0.7C135.7,68,135.6,69.9,135.7,71.9
		z"/>
</g>
<path class="st17" d="M828.3,197.1h-619c-5.3,0-9.5-4.3-9.5-9.5v-56.2c0-5.3,4.3-9.5,9.5-9.5h619c5.3,0,9.5,4.3,9.5,9.5v56.2
	C837.9,192.8,833.6,197.1,828.3,197.1z"/>
<g>
	<path class="st18" d="M231.2,89c2.7,0,4.9-0.2,6.7-0.7c1.8-0.4,3.2-1.1,4.2-1.8c1.1-0.8,1.8-1.7,2.2-2.8c0.4-1.1,0.6-2.2,0.6-3.5
		c0-2.8-1.3-5.1-3.9-6.9c-2.6-1.8-7.1-3.8-13.5-5.9c-2.8-1-5.5-2.1-8.3-3.4c-2.8-1.3-5.3-2.9-7.5-4.8c-2.2-1.9-4-4.2-5.4-7
		c-1.4-2.7-2.1-6.1-2.1-10s0.7-7.4,2.2-10.6c1.5-3.1,3.5-5.8,6.2-8c2.7-2.2,6-3.9,9.8-5.1c3.8-1.2,8.2-1.8,13-1.8
		c5.7,0,10.6,0.6,14.8,1.8c4.2,1.2,7.6,2.6,10.3,4l-5.5,15c-2.4-1.2-5-2.3-7.9-3.2c-2.9-0.9-6.4-1.4-10.5-1.4
		c-4.6,0-7.9,0.6-9.8,1.9c-2,1.3-3,3.2-3,5.8c0,1.6,0.4,2.9,1.1,3.9c0.7,1.1,1.8,2,3.1,2.9s2.9,1.6,4.6,2.3c1.8,0.7,3.7,1.4,5.8,2.1
		c4.4,1.6,8.2,3.2,11.5,4.8c3.3,1.6,6,3.4,8.1,5.6c2.2,2.1,3.8,4.6,4.8,7.5c1.1,2.9,1.6,6.3,1.6,10.4c0,7.9-2.8,14-8.3,18.4
		c-5.5,4.4-13.9,6.5-25.1,6.5c-3.8,0-7.1-0.2-10.2-0.7c-3-0.4-5.7-1-8-1.7c-2.3-0.7-4.3-1.3-6-2.1c-1.7-0.7-3.1-1.4-4.2-2.1
		l5.4-15.2c2.5,1.4,5.6,2.6,9.4,3.7C221.3,88.4,225.8,89,231.2,89z"/>
	<path class="st18" d="M314.9,105.3c-13.8,0-24.3-3.8-31.5-11.5c-7.2-7.7-10.8-18.6-10.8-32.7c0-7,1.1-13.3,3.3-18.8
		c2.2-5.5,5.2-10.2,9.1-13.9c3.8-3.8,8.4-6.7,13.7-8.6c5.3-2,11-2.9,17.2-2.9c3.6,0,6.9,0.3,9.8,0.8c2.9,0.5,5.5,1.1,7.7,1.8
		c2.2,0.7,4,1.4,5.5,2.1c1.5,0.7,2.5,1.3,3.2,1.7l-5.5,15.4c-2.6-1.4-5.6-2.6-9.1-3.5c-3.5-1-7.4-1.5-11.8-1.5
		c-2.9,0-5.8,0.5-8.6,1.5c-2.8,1-5.3,2.5-7.5,4.7c-2.2,2.2-3.9,5-5.2,8.4c-1.3,3.4-2,7.6-2,12.5c0,3.9,0.4,7.6,1.3,10.9
		c0.9,3.4,2.2,6.3,4.2,8.7c1.9,2.4,4.4,4.4,7.5,5.8c3.1,1.4,6.9,2.1,11.3,2.1c2.8,0,5.3-0.2,7.5-0.5c2.2-0.3,4.2-0.7,5.9-1.2
		c1.7-0.4,3.2-1,4.5-1.5c1.3-0.6,2.5-1.1,3.5-1.6l5.3,15.3c-2.7,1.6-6.5,3.1-11.4,4.4C327,104.6,321.3,105.3,314.9,105.3z"/>
	<path class="st18" d="M430.1,61.1c0,7.3-1.1,13.6-3.2,19.1c-2.2,5.5-5.1,10.1-8.9,13.8c-3.8,3.7-8.2,6.5-13.4,8.4
		c-5.2,1.9-10.7,2.8-16.7,2.8c-5.8,0-11.3-0.9-16.4-2.8c-5.1-1.9-9.6-4.7-13.5-8.4c-3.8-3.7-6.9-8.3-9.1-13.8
		c-2.2-5.5-3.3-11.9-3.3-19.1c0-7.3,1.1-13.6,3.4-19.1c2.3-5.5,5.4-10.1,9.2-13.9c3.9-3.8,8.4-6.6,13.5-8.4
		c5.1-1.9,10.5-2.8,16.1-2.8c5.8,0,11.3,0.9,16.4,2.8c5.1,1.9,9.6,4.7,13.5,8.4c3.8,3.8,6.9,8.4,9.1,13.9
		C429,47.5,430.1,53.8,430.1,61.1z M365.4,61.1c0,4.2,0.5,7.9,1.5,11.3c1,3.3,2.5,6.2,4.4,8.6c1.9,2.4,4.3,4.3,7,5.6
		c2.8,1.3,6,2,9.5,2c3.5,0,6.7-0.7,9.5-2c2.8-1.3,5.2-3.2,7.1-5.6c1.9-2.4,3.4-5.3,4.4-8.6c1-3.3,1.5-7.1,1.5-11.3
		s-0.5-7.9-1.5-11.3c-1-3.4-2.5-6.3-4.4-8.7c-1.9-2.4-4.3-4.3-7.1-5.6c-2.8-1.3-6-2-9.5-2c-3.6,0-6.8,0.7-9.5,2
		c-2.8,1.3-5.1,3.2-7,5.6c-1.9,2.4-3.4,5.3-4.4,8.7C365.9,53.3,365.4,57,365.4,61.1z"/>
	<path class="st18" d="M503,18.8V35h-25.6v68.5h-19.1V35h-25.6V18.8H503z"/>
	<path class="st18" d="M568.8,87.2v16.4h-56.6V18.8h19.1v68.4H568.8z"/>
	<path class="st18" d="M642.8,103.6c-0.9-2.9-2-6-3-9.1c-1.1-3.1-2.2-6.2-3.2-9.3h-33.1c-1.1,3.1-2.1,6.2-3.2,9.3
		c-1.1,3.1-2.1,6.1-3,9.1h-19.8c3.2-9.1,6.2-17.6,9.1-25.3c2.9-7.7,5.7-15,8.4-21.9s5.4-13.4,8.1-19.5c2.7-6.2,5.4-12.2,8.3-18h18.1
		c2.8,5.9,5.5,11.9,8.2,18c2.7,6.2,5.4,12.7,8.2,19.5c2.7,6.9,5.6,14.2,8.4,21.9c2.9,7.7,5.9,16.2,9.1,25.3H642.8z M619.9,38
		c-0.4,1.2-1,2.9-1.9,5c-0.8,2.1-1.8,4.6-2.8,7.3c-1,2.8-2.2,5.8-3.5,9.2c-1.3,3.3-2.6,6.8-3.9,10.5H632c-1.3-3.7-2.6-7.2-3.8-10.5
		s-2.4-6.4-3.5-9.2c-1.1-2.8-2.1-5.2-2.9-7.3C621.1,40.8,620.4,39.2,619.9,38z"/>
	<path class="st18" d="M728,103.6c-5.5-9.7-11.4-19.3-17.7-28.7c-6.4-9.5-13.1-18.4-20.3-26.8v55.5h-18.8V18.8h15.5
		c2.7,2.7,5.7,6,8.9,9.9c3.3,3.9,6.6,8.1,10,12.5c3.4,4.4,6.7,9.1,10.1,13.8c3.3,4.8,6.5,9.4,9.4,13.8v-50h19v84.8H728z"/>
	<path class="st18" d="M834.8,61.1c0,7.3-1.1,13.7-3.4,19.2c-2.3,5.5-5.5,10-9.7,13.6c-4.2,3.6-9.3,6.3-15.4,8.1
		c-6,1.8-12.8,2.7-20.3,2.7c-3.4,0-7.4-0.1-12-0.4c-4.6-0.3-9.1-0.9-13.5-1.8V19.9c4.4-0.8,9-1.4,13.8-1.7c4.8-0.3,8.9-0.4,12.3-0.4
		c7.3,0,13.8,0.8,19.8,2.4c5.9,1.6,11,4.2,15.2,7.7c4.2,3.5,7.5,8,9.8,13.5C833.7,46.9,834.8,53.4,834.8,61.1z M779.6,88
		c0.9,0.1,1.9,0.1,3.1,0.2c1.2,0,2.6,0.1,4.2,0.1c9.5,0,16.6-2.4,21.2-7.2c4.6-4.8,6.9-11.5,6.9-19.9c0-8.9-2.2-15.6-6.6-20.2
		c-4.4-4.6-11.4-6.9-20.9-6.9c-1.3,0-2.7,0-4,0.1c-1.4,0-2.7,0.1-3.9,0.3V88z"/>
</g>
<g>
	<path class="st19" d="M299.1,141.5v4.6h-9V171h-5.4v-24.8h-9v-4.6H299.1z"/>
	<path class="st19" d="M341.5,156.2c0,2.5-0.4,4.7-1.1,6.7c-0.8,1.9-1.8,3.5-3.1,4.8c-1.3,1.3-2.8,2.3-4.5,2.9c-1.7,0.7-3.6,1-5.5,1
		s-3.8-0.3-5.5-1s-3.3-1.6-4.5-2.9c-1.3-1.3-2.3-2.9-3.1-4.8c-0.8-1.9-1.1-4.1-1.1-6.7c0-2.5,0.4-4.7,1.1-6.6s1.8-3.5,3.1-4.8
		c1.3-1.3,2.8-2.3,4.6-2.9c1.7-0.7,3.6-1,5.5-1c1.9,0,3.8,0.3,5.5,1c1.7,0.7,3.2,1.6,4.5,2.9c1.3,1.3,2.3,2.9,3.1,4.8
		C341.1,151.5,341.5,153.7,341.5,156.2z M318.5,156.2c0,1.6,0.2,3.1,0.6,4.4s1,2.4,1.7,3.4c0.8,0.9,1.7,1.6,2.7,2.1
		c1.1,0.5,2.3,0.8,3.7,0.8c1.3,0,2.5-0.3,3.6-0.8c1.1-0.5,2-1.2,2.7-2.1c0.7-0.9,1.3-2,1.7-3.4s0.6-2.8,0.6-4.4s-0.2-3.1-0.6-4.4
		s-1-2.4-1.7-3.4c-0.8-0.9-1.7-1.6-2.7-2.1c-1.1-0.5-2.3-0.8-3.6-0.8c-1.4,0-2.6,0.3-3.7,0.8c-1.1,0.5-2,1.2-2.7,2.2
		c-0.8,0.9-1.3,2.1-1.7,3.4S318.5,154.6,318.5,156.2z"/>
	<path class="st19" d="M367.6,141.2c4.3,0,7.6,0.8,9.8,2.3c2.3,1.6,3.4,4,3.4,7.3c0,1.7-0.3,3.2-0.9,4.4c-0.6,1.2-1.5,2.2-2.7,3
		c-1.2,0.8-2.6,1.4-4.2,1.7c-1.7,0.4-3.6,0.6-5.7,0.6h-2.7V171h-5.4v-29c1.2-0.3,2.6-0.5,4.1-0.6C365,141.3,366.4,141.2,367.6,141.2
		z M368,145.9c-1.4,0-2.5,0-3.4,0.1v10h2.6c2.6,0,4.6-0.4,5.9-1.1c1.4-0.7,2.1-2.1,2.1-4.1c0-1-0.2-1.8-0.6-2.4
		c-0.4-0.7-0.9-1.2-1.5-1.5c-0.7-0.4-1.4-0.6-2.3-0.8C370,145.9,369,145.9,368,145.9z"/>
	<path class="st19" d="M427.1,141.3c4.2,0,7.3,0.8,9.3,2.4c2,1.6,3.1,3.8,3.1,6.8c0,1.7-0.3,3.1-0.9,4.3c-0.6,1.2-1.4,2.1-2.5,2.8
		s-2.5,1.2-4.1,1.6c-1.6,0.3-3.4,0.5-5.4,0.5h-4V171h-2.9v-28.9c1-0.3,2.2-0.5,3.6-0.6S426,141.3,427.1,141.3z M427.3,143.8
		c-1.1,0-2,0-2.7,0.1c-0.8,0.1-1.4,0.1-1.9,0.2v13h3.7c1.6,0,3-0.1,4.2-0.3c1.3-0.2,2.3-0.5,3.2-1c0.9-0.5,1.6-1.2,2.1-2.1
		s0.7-2,0.7-3.4c0-1.3-0.3-2.4-0.8-3.2c-0.5-0.8-1.2-1.5-2.1-2c-0.9-0.5-1.8-0.8-3-1C429.6,143.9,428.4,143.8,427.3,143.8z"/>
	<path class="st19" d="M467.4,171.6c-2,0-3.6-0.3-5-0.9s-2.5-1.4-3.3-2.5c-0.8-1-1.5-2.3-1.8-3.7s-0.6-2.9-0.6-4.5v-18.5h2.9v18.1
		c0,1.6,0.2,3,0.6,4.2c0.4,1.2,0.9,2.1,1.6,2.9c0.7,0.8,1.5,1.3,2.5,1.7c1,0.4,2,0.6,3.2,0.6c1.2,0,2.3-0.2,3.2-0.6
		c1-0.4,1.8-0.9,2.5-1.7c0.7-0.8,1.2-1.7,1.6-2.9c0.4-1.2,0.6-2.6,0.6-4.2v-18.1h2.9V160c0,1.6-0.2,3.1-0.6,4.5s-1,2.6-1.8,3.7
		s-2,1.9-3.3,2.5S469.4,171.6,467.4,171.6z"/>
	<path class="st19" d="M504.7,171.2c-0.5,0-1,0-1.7-0.1c-0.6,0-1.3-0.1-2-0.2c-0.7-0.1-1.3-0.2-1.9-0.3c-0.6-0.1-1.1-0.2-1.5-0.3
		v-28.3c0.5-0.1,1.1-0.3,1.7-0.4c0.6-0.1,1.3-0.2,1.9-0.3c0.7-0.1,1.3-0.1,2-0.1c0.6,0,1.2,0,1.8,0c1.6,0,3.1,0.1,4.5,0.4
		c1.4,0.3,2.7,0.7,3.8,1.3c1.1,0.6,1.9,1.4,2.6,2.4c0.6,1,1,2.2,1,3.6c0,1.6-0.4,2.9-1.2,4c-0.8,1.1-1.9,1.9-3.2,2.3
		c0.8,0.2,1.6,0.5,2.3,0.9c0.7,0.4,1.3,0.8,1.9,1.4c0.5,0.6,1,1.3,1.3,2.1c0.3,0.8,0.4,1.8,0.4,3c0,2.8-1.1,4.9-3.3,6.4
		C512.8,170.5,509.3,171.2,504.7,171.2z M500.6,154.4h5.6c1,0,2-0.1,3-0.2c0.9-0.2,1.7-0.4,2.4-0.8s1.2-1,1.6-1.6
		c0.4-0.7,0.6-1.6,0.6-2.6c0-1-0.2-1.8-0.6-2.4c-0.4-0.7-1-1.2-1.8-1.6c-0.8-0.4-1.7-0.7-2.8-0.9s-2.3-0.3-3.6-0.3
		c-1,0-1.9,0-2.7,0.1c-0.7,0.1-1.3,0.1-1.8,0.2V154.4z M500.6,156.8v11.6c0.4,0.1,1.1,0.1,1.9,0.2c0.8,0.1,1.7,0.1,2.6,0.1
		c1.3,0,2.6-0.1,3.8-0.3s2.3-0.5,3.2-0.9c0.9-0.5,1.7-1.1,2.3-1.9c0.6-0.8,0.8-1.8,0.8-3.1c0-1.1-0.2-2.1-0.6-2.8
		c-0.4-0.8-1-1.3-1.7-1.8c-0.7-0.4-1.6-0.7-2.7-0.9c-1.1-0.2-2.2-0.3-3.5-0.3H500.6z"/>
	<path class="st19" d="M553.1,168.5v2.5h-16.7v-29.4h2.9v26.9H553.1z"/>
	<path class="st19" d="M569.7,141.5h2.9V171h-2.9V141.5z"/>
	<path class="st19" d="M598.5,169.1c2.3,0,4.1-0.4,5.4-1.3c1.3-0.8,1.9-2.2,1.9-4.1c0-1.1-0.2-2-0.6-2.7c-0.4-0.7-1-1.3-1.6-1.8
		c-0.7-0.5-1.5-0.9-2.3-1.3c-0.9-0.4-1.8-0.7-2.8-1.1c-1.2-0.5-2.3-1-3.3-1.5c-1-0.5-1.8-1.1-2.5-1.7s-1.2-1.4-1.6-2.2
		c-0.4-0.8-0.5-1.8-0.5-2.9c0-2.5,0.8-4.4,2.5-5.7c1.7-1.3,4-2,7-2c0.8,0,1.6,0.1,2.3,0.2c0.8,0.1,1.5,0.3,2.1,0.4
		c0.7,0.2,1.3,0.4,1.8,0.6c0.6,0.2,1,0.5,1.4,0.7l-1,2.4c-0.8-0.6-1.8-1-3-1.4s-2.4-0.5-3.8-0.5c-0.9,0-1.8,0.1-2.6,0.3
		s-1.5,0.5-2,0.9c-0.6,0.4-1,0.9-1.3,1.6c-0.3,0.6-0.5,1.4-0.5,2.3c0,0.9,0.2,1.7,0.5,2.3c0.3,0.6,0.8,1.2,1.4,1.6
		c0.6,0.5,1.3,0.9,2.1,1.2c0.8,0.4,1.7,0.8,2.7,1.1c1.2,0.5,2.3,1,3.3,1.4c1,0.5,1.9,1,2.7,1.7c0.8,0.7,1.4,1.4,1.8,2.4
		c0.5,0.9,0.7,2.1,0.7,3.4c0,2.7-0.9,4.7-2.8,6c-1.9,1.3-4.4,2-7.5,2c-1.1,0-2.2-0.1-3.1-0.2c-0.9-0.1-1.8-0.3-2.5-0.5
		c-0.7-0.2-1.4-0.4-1.9-0.7c-0.5-0.2-0.9-0.4-1.2-0.6l0.9-2.5c0.3,0.2,0.7,0.4,1.1,0.6c0.5,0.2,1,0.4,1.7,0.7s1.4,0.4,2.2,0.5
		C596.6,169,597.6,169.1,598.5,169.1z"/>
	<path class="st19" d="M645,141.5h2.9V171H645v-14.1h-16V171h-2.9v-29.4h2.9v12.8h16V141.5z"/>
	<path class="st19" d="M667.5,171v-29.4h17v2.5h-14.1v10.2H683v2.5h-12.6v11.7h15.2v2.5H667.5z"/>
	<path class="st19" d="M722.7,150.4c0,2.2-0.6,3.9-1.7,5.2c-1.2,1.3-2.7,2.2-4.6,2.8c0.5,0.6,1,1.3,1.8,2.3c0.7,1,1.5,2,2.2,3.2
		c0.8,1.1,1.5,2.3,2.3,3.6c0.7,1.2,1.4,2.4,1.9,3.6h-3.1c-0.6-1.1-1.2-2.3-1.9-3.4c-0.7-1.1-1.4-2.2-2.1-3.3c-0.7-1.1-1.4-2-2.1-3
		c-0.7-0.9-1.3-1.7-1.8-2.4c-0.9,0.1-1.8,0.1-2.7,0.1h-4.8V171h-2.9v-28.9c1-0.3,2.2-0.5,3.6-0.6c1.4-0.1,2.6-0.2,3.8-0.2
		c4,0,7.1,0.8,9.2,2.3C721.7,145.1,722.7,147.4,722.7,150.4z M710.8,143.8c-1.1,0-2,0-2.8,0.1c-0.8,0.1-1.5,0.1-2,0.2v12.5h4
		c1.3,0,2.6-0.1,3.8-0.2c1.2-0.1,2.2-0.4,3.1-0.8c0.9-0.4,1.6-1.1,2.1-1.9s0.8-1.9,0.8-3.4c0-1.3-0.3-2.4-0.8-3.2
		c-0.5-0.8-1.2-1.5-2-2c-0.8-0.5-1.8-0.8-2.8-1C713,143.9,711.9,143.8,710.8,143.8z"/>
	<path class="st19" d="M747.6,169.1c2.3,0,4.1-0.4,5.4-1.3c1.3-0.8,1.9-2.2,1.9-4.1c0-1.1-0.2-2-0.6-2.7c-0.4-0.7-1-1.3-1.6-1.8
		c-0.7-0.5-1.5-0.9-2.3-1.3c-0.9-0.4-1.8-0.7-2.8-1.1c-1.2-0.5-2.3-1-3.3-1.5c-1-0.5-1.8-1.1-2.5-1.7s-1.2-1.4-1.6-2.2
		c-0.4-0.8-0.5-1.8-0.5-2.9c0-2.5,0.8-4.4,2.5-5.7c1.7-1.3,4-2,7-2c0.8,0,1.6,0.1,2.3,0.2c0.8,0.1,1.5,0.3,2.1,0.4
		c0.7,0.2,1.3,0.4,1.8,0.6c0.6,0.2,1,0.5,1.4,0.7l-1,2.4c-0.8-0.6-1.8-1-3-1.4s-2.4-0.5-3.8-0.5c-0.9,0-1.8,0.1-2.6,0.3
		s-1.5,0.5-2,0.9c-0.6,0.4-1,0.9-1.3,1.6c-0.3,0.6-0.5,1.4-0.5,2.3c0,0.9,0.2,1.7,0.5,2.3c0.3,0.6,0.8,1.2,1.4,1.6
		c0.6,0.5,1.3,0.9,2.1,1.2c0.8,0.4,1.7,0.8,2.7,1.1c1.2,0.5,2.3,1,3.3,1.4c1,0.5,1.9,1,2.7,1.7c0.8,0.7,1.4,1.4,1.8,2.4
		c0.5,0.9,0.7,2.1,0.7,3.4c0,2.7-0.9,4.7-2.8,6c-1.9,1.3-4.4,2-7.5,2c-1.1,0-2.2-0.1-3.1-0.2c-0.9-0.1-1.8-0.3-2.5-0.5
		c-0.7-0.2-1.4-0.4-1.9-0.7c-0.5-0.2-0.9-0.4-1.2-0.6l0.9-2.5c0.3,0.2,0.7,0.4,1.1,0.6c0.5,0.2,1,0.4,1.7,0.7s1.4,0.4,2.2,0.5
		C745.7,169,746.6,169.1,747.6,169.1z"/>
</g>
<path class="st19" d="M257.3,151h-24.5c-0.9,0-1.6-0.7-1.6-1.6V148c0-0.9,0.7-1.6,1.6-1.6h24.5c0.9,0,1.6,0.7,1.6,1.6v1.4
	C259,150.3,258.2,151,257.3,151z"/>
<path class="st19" d="M257.3,167.9h-24.5c-0.9,0-1.6-0.7-1.6-1.6v-1.4c0-0.9,0.7-1.6,1.6-1.6h24.5c0.9,0,1.6,0.7,1.6,1.6v1.4
	C259,167.2,258.2,167.9,257.3,167.9z"/>
<path class="st19" d="M257.3,159.5H218c-0.9,0-1.6-0.7-1.6-1.6v-1.4c0-0.9,0.7-1.6,1.6-1.6h39.3c0.9,0,1.6,0.7,1.6,1.6v1.4
	C259,158.8,258.2,159.5,257.3,159.5z"/>
<path class="st19" d="M781.6,151h24.5c0.9,0,1.6-0.7,1.6-1.6V148c0-0.9-0.7-1.6-1.6-1.6h-24.5c-0.9,0-1.6,0.7-1.6,1.6v1.4
	C780,150.3,780.7,151,781.6,151z"/>
<path class="st19" d="M781.6,167.9h24.5c0.9,0,1.6-0.7,1.6-1.6v-1.4c0-0.9-0.7-1.6-1.6-1.6h-24.5c-0.9,0-1.6,0.7-1.6,1.6v1.4
	C780,167.2,780.7,167.9,781.6,167.9z"/>
<path class="st19" d="M781.6,159.5H821c0.9,0,1.6-0.7,1.6-1.6v-1.4c0-0.9-0.7-1.6-1.6-1.6h-39.3c-0.9,0-1.6,0.7-1.6,1.6v1.4
	C780,158.8,780.7,159.5,781.6,159.5z"/>
<g>
	<g>
		<linearGradient id="SVGID_18_" gradientUnits="userSpaceOnUse" x1="48.7698" y1="182.5067" x2="48.7861" y2="182.5067">
			<stop  offset="0" style="stop-color:#0055C4"/>
			<stop  offset="1" style="stop-color:#0084C4"/>
		</linearGradient>
		<path class="st20" d="M48.8,182.5C48.8,182.5,48.8,182.5,48.8,182.5C48.8,182.5,48.8,182.5,48.8,182.5
			C48.8,182.5,48.8,182.5,48.8,182.5z"/>
		<linearGradient id="SVGID_19_" gradientUnits="userSpaceOnUse" x1="4.9421" y1="76.1286" x2="4.9602" y2="76.1286">
			<stop  offset="0" style="stop-color:#0055C4"/>
			<stop  offset="1" style="stop-color:#0084C4"/>
		</linearGradient>
		<path class="st21" d="M4.9,75.9c0,0.1,0,0.3,0,0.4C5,76.2,5,76.1,4.9,75.9C4.9,75.9,4.9,75.9,4.9,75.9z"/>
		<linearGradient id="SVGID_20_" gradientUnits="userSpaceOnUse" x1="0" y1="116.1289" x2="114.52" y2="116.1289">
			<stop  offset="0" style="stop-color:#0055C4"/>
			<stop  offset="1" style="stop-color:#0084C4"/>
		</linearGradient>
		<path class="st22" d="M91.5,186.1c-2.4-0.9-4-2.2-4.9-4.5c-1-2.6-1.9-5.3-2.9-8c-0.2-0.5-0.5-1.1-0.8-1.6c-3.6-4.4-7-9-9.7-14.1
			c-0.5-0.8-0.9-1.6-1.4-2.4c-0.1,0-0.2,0.1-0.3,0.1c0.6,3.1,1.2,6.1,1.7,9.2c-0.1,0-0.2,0.1-0.3,0.1c-0.3-0.3-0.6-0.6-0.9-1
			c-2-3.2-4.1-6.2-5.8-9.5c-1.7-3.3-4.3-5.7-6.6-8.5c1,6.4,3.1,12.5,5.4,18.4c-3.8-5.1-6.6-10.7-9-16.7c-0.1,0.6-0.2,1-0.3,1.5
			c-0.1,0-0.2,0-0.3,0c-0.1-0.4-0.2-0.9-0.3-1.3c-0.3-1.3-0.4-2.7-1.1-4c-4.8-8.2-8.3-17-11.3-26c-1.3-3.9-2.5-7.9-3.8-11.8
			c-0.1-0.4-0.3-0.7-0.6-1.2c-2.1,3.6-3.1,7.2-4.7,10.7c-0.1-0.4-0.2-0.8-0.1-1.3c0.3-2.5,0.5-5.1,0.9-7.6c0.3-2.5,0.9-5,0.7-7.6
			c-0.8-9-2.4-17.9-3.7-26.8c-1.1-8-2.1-16-3.2-24c-0.5-3.6-0.9-7.2-1.6-10.8c-0.4-2.3-2-2.9-4.1-1.7c-1.2,0.7-2.4,1.5-3.4,2.5
			c-3.7,3.6-6.5,7.9-8.7,12.5c-1.6,3.4-2.9,6.8-4,10.4c-0.7,2.3-1.1,4.6-1.3,6.9l0,0c-0.5,2.4-0.5,6-0.5,7.9c0,0.2,0,0.3,0,0.5
			c0,0.1,0,0.1,0,0.2c0,0.3,0,0.6,0,0.6C5.1,80.1,5.2,83,5.3,86C5.2,86,5.1,86.1,5,86.2c-1.5-1.4-2.9-2.9-4.5-4.4
			c0,0.4-0.1,0.6-0.1,0.7c0.4,5,0.7,10.1,1.2,15.1c0.2,2.1,0.4,4.2,1.8,6c2.7,3.6,5.4,7.3,8.1,11c0.2,0.3,0.4,0.5,0.5,0.8
			c-4.4-2-8.1-4.9-12.1-7.6c0.1,1.1,0.2,2.1,0.5,3.1c1.1,3.8,2.2,7.6,3.4,11.3c2.3,7,5.4,13.7,9.1,20c0.5,0.9,1.2,1.8,2,2.5
			c2.5,2.1,5,4.1,7.5,6.1c0.3,0.3,0.6,0.6,0.9,0.9c-0.1,0.1-0.2,0.3-0.3,0.4c-4.9-2.6-9.9-5.2-14.9-7.9c0.1,0.3,0.2,0.5,0.3,0.7
			c4,7.4,8.7,14.4,14.2,20.8c0.4,0.5,0.9,0.9,1.5,1.2c3.1,1.3,6.2,2.7,9.4,3.9c1.4,0.6,2.9,1,4.4,1.5c0,0.1,0,0.2,0,0.4
			c-2.5,0.1-5.1,0.2-8,0.3c8.9,3.9,17.9,6.2,27.1,7.7c0,0.1,0,0.2,0,0.4c-0.3,0.1-0.7,0.1-1,0.2v0c0,0-4.3,1-9,1.2h-0.1
			c-0.2,0-0.4,0-0.6,0c0,0-0.1,0-0.1,0c-2.2,0.1-4.5,0-6.4-0.4c0,0,4,5.6,14.4,7.9c0,0,0,0,0,0c2,0.5,4,0.8,6,1.1
			c6.8,1,13.7,0.7,20.6,0.4c1,0,2-0.1,3-0.2c-17.4-10.6-32.2-23.9-44.2-40.3c-12-16.5-19.9-34.7-24.5-54.5c1.2,3.4,2.3,6.7,3.4,10.1
			c2.4,7.4,5.4,14.5,8.8,21.4c4,8.2,8.7,16,14.3,23.2c3.4,4.3,7.1,8.4,10.7,12.5c7.1,7.9,15.3,14.5,24.4,19.9c1.8,1,3.6,2,5.4,2.8
			c4.1,1.9,8.2,3.9,12.5,5.5c6.5,2.3,13.1,4,19.8,5v-5.4C106.7,190.8,99,188.8,91.5,186.1z"/>
	</g>
</g>
</svg>
